<svg width="420" height="120" viewBox="0 0 420 120" fill="none" xmlns="http://www.w3.org/2000/svg">
<path d="M16.7561 96.9725C15.7939 96.567 11.181 91.5182 10.2819 90.4096C9.49063 89.4346 8.80768 88.3459 8.10976 87.3018C7.91849 87.0181 7.73034 86.7324 7.54529 86.4447C7.36025 86.1568 7.1784 85.867 6.99972 85.5754C6.8209 85.2837 6.64526 84.9902 6.4728 84.6946C6.30049 84.3993 6.13129 84.102 5.9652 83.8029C5.79925 83.5039 5.63657 83.2031 5.47713 82.9005C5.31755 82.5979 5.1613 82.2936 5.00838 81.9877C4.85545 81.6818 4.70586 81.3742 4.55959 81.065C4.41332 80.7559 4.27045 80.4452 4.13098 80.133C3.99137 79.8207 3.85523 79.507 3.72256 79.1919C3.58974 78.8767 3.4604 78.5602 3.33453 78.2423C3.20852 77.9245 3.08605 77.6052 2.96713 77.2846C2.84806 76.9639 2.73253 76.6422 2.62055 76.3192C2.50842 75.9962 2.39984 75.6719 2.29481 75.3466C2.18977 75.0212 2.08828 74.6947 1.99034 74.3672C1.89225 74.0396 1.79777 73.711 1.70691 73.3815C1.61606 73.0519 1.52874 72.7214 1.44498 72.39C1.36121 72.0584 1.28106 71.726 1.20452 71.3928C1.12799 71.0597 1.05507 70.7257 0.98577 70.3909C0.91647 70.0562 0.850782 69.7208 0.788715 69.3847C0.726649 69.0485 0.668203 68.7117 0.61337 68.3742C0.558537 68.0368 0.507394 67.6989 0.459939 67.3604C0.412485 67.0219 0.368644 66.6828 0.328424 66.3433C0.288203 66.0039 0.251745 65.6641 0.219048 65.3239C0.186206 64.9836 0.157057 64.6431 0.131594 64.3021C0.106131 63.9613 0.0843579 63.6202 0.0662732 63.2788C0.0481885 62.9375 0.033792 62.5961 0.0230859 62.2544C0.0125245 61.9127 0.00557814 61.5709 0.00225056 61.2291C-0.00107702 60.8874 -0.000714269 60.5457 0.0033367 60.2039C0.00753234 59.862 0.0153453 59.5203 0.0267748 59.1788C0.0382043 58.8371 0.0533936 58.4957 0.0723463 58.1544C0.0911544 57.813 0.113653 57.4719 0.139839 57.1311C0.166171 56.7903 0.196119 56.4498 0.229684 56.1097C0.515277 53.4556 0.96537 50.6959 1.70409 48.1272C4.57565 38.1409 10.9789 28.4246 19.0934 21.9264C20.4675 20.8261 21.8519 19.6708 23.307 18.6802C27.0082 16.1597 31.1497 14.234 35.3741 12.778C37.2724 12.1238 39.1969 11.4579 41.1589 11.0207C47.5539 9.59602 54.7541 9.87187 61.2266 10.5847C67.7944 11.308 76.4605 15.2145 81.8091 19.0596C83.4482 20.2379 84.9211 21.6175 86.418 22.966C87.9024 24.3032 89.3692 25.6285 90.6236 27.1903C91.5177 28.0735 92.3131 29.0232 92.7265 30.222C92.7332 30.2417 92.7406 30.2609 92.7477 30.2804L92.4808 30.8014C91.8571 30.6043 89.914 28.5769 89.45 27.9677C87.2321 25.8217 84.9734 23.657 82.4985 21.8051C76.0694 16.9944 67.8081 13.6084 59.8548 12.5403C57.1395 12.1757 54.3867 12.1208 51.6506 12.1595C51.2457 12.1624 50.841 12.1703 50.4364 12.1831C50.0317 12.1958 49.6273 12.2135 49.2232 12.2363C48.819 12.259 48.4151 12.2866 48.0116 12.3192C47.6081 12.3516 47.2051 12.3891 46.8024 12.4317C46.3999 12.4741 45.9979 12.5214 45.5965 12.5736C45.195 12.6259 44.7942 12.6831 44.3942 12.7452C43.9943 12.8072 43.5951 12.8741 43.1967 12.9459C42.7984 13.0179 42.401 13.0946 42.0044 13.1761C41.608 13.2577 41.2126 13.3441 40.8182 13.4353C40.4238 13.5266 40.0306 13.6227 39.6387 13.7235C39.2468 13.8244 38.8561 13.9301 38.4666 14.0404C38.0773 14.1509 37.6893 14.2661 37.3028 14.3861C36.9162 14.506 36.5312 14.6306 36.1478 14.76C35.7643 14.8894 35.3824 15.0233 35.0024 15.162C34.6222 15.3007 34.2437 15.4441 33.867 15.592C33.4904 15.74 33.1156 15.8926 32.7428 16.0496C32.3698 16.2067 31.999 16.3684 31.6302 16.5347C31.2612 16.7008 30.8944 16.8715 30.5297 17.0468C30.165 17.2219 29.8025 17.4014 29.4422 17.5855C29.082 17.7695 28.724 17.9579 28.3682 18.1508C28.0126 18.3436 27.6594 18.5408 27.3087 18.7423C26.9579 18.9437 26.6096 19.1494 26.2638 19.3593C25.9182 19.5693 25.5751 19.7835 25.2347 20.0018C24.8941 20.2203 24.5564 20.4429 24.2215 20.6695C23.8865 20.8961 23.5544 21.1267 23.2251 21.3616C22.8959 21.5964 22.5695 21.8351 22.2462 22.0779C21.9227 22.3206 21.6023 22.5673 21.285 22.8178C20.9676 23.0685 20.6534 23.323 20.3423 23.5813C20.0312 23.8396 19.7234 24.1016 19.4189 24.3675C19.1142 24.6333 18.8129 24.9028 18.515 25.1759C18.217 25.4491 17.9224 25.7259 17.6313 26.0063C17.3401 26.2867 17.0524 26.5706 16.7683 26.858C14.7539 28.9306 12.7326 31.1819 11.0525 33.5334C5.37318 41.4817 1.72579 52.1705 1.90896 61.94C2.06477 70.238 4.68329 79.0039 8.7315 86.2251C9.54597 87.6778 10.5327 89.0756 11.4926 90.4358C13.1018 92.7161 15.2057 94.6768 16.7561 96.9725Z" fill="url(#paint0_linear_3_172)"/>
<path d="M91.0854 29.3689C91.3326 29.2478 91.5075 29.1745 91.6852 28.957C91.6631 28.2349 90.8606 27.7695 90.4315 27.2459L90.6236 27.1903C91.5177 28.0735 92.3131 29.0232 92.7265 30.222C92.7332 30.2417 92.7406 30.2609 92.7477 30.2804L92.4808 30.8014C91.8571 30.6043 89.914 28.5769 89.45 27.9677L89.5644 27.956C90.1238 28.2777 90.6282 28.9057 91.0854 29.3689Z" fill="#32524A"/>
<path d="M100 61.7284C100 87.8358 78.7702 109 52.582 109C26.3938 109 5.16399 87.8358 5.16399 61.7284C5.16399 35.6211 26.3938 14.4569 52.582 14.4569C78.7702 14.4569 100 35.6211 100 61.7284Z" fill="#FDFCFC"/>
<path d="M47.1575 84.9517C48.3773 85.0717 49.791 85.1156 50.97 85.4148C50.6338 85.4412 49.9003 85.3631 49.6432 85.517L50.3385 85.7973C50.1909 85.9259 50.1332 85.8886 49.9472 85.8739C49.6855 85.8532 49.4672 85.7461 49.2007 85.7634C48.481 85.5968 47.6965 85.4891 47.1575 84.9517Z" fill="#6A7F78"/>
<path d="M53.1584 40.3018C55.0914 40.1107 57.0981 39.6947 59.0371 39.9682C58.4551 40.0097 57.7952 39.9046 57.25 40.1032C57.1272 40.3494 57.1584 40.3835 57.1767 40.6458C55.8626 40.4454 54.4301 40.5938 53.1584 40.3018Z" fill="#32524A"/>
<path d="M46.2015 84.8069C46.509 84.8526 46.8589 84.8746 47.1575 84.9517C47.6965 85.4891 48.481 85.5968 49.2007 85.7634C48.8849 85.9496 48.5642 85.9529 48.208 85.9838L46.1664 85.7787C46.2171 85.4577 46.2022 85.131 46.2015 84.8069Z" fill="#4C705F"/>
<path d="M37.5083 86.9347C36.4264 87.5569 35.229 87.9725 34.0584 88.3957C33.5087 88.1683 32.8353 88.093 32.2524 87.918L32.503 87.9264L32.4763 87.8669L31.9067 87.7005C32.8507 87.6664 33.7907 87.5853 34.7268 87.4574C35.6627 87.3293 36.5899 87.1551 37.5083 86.9347Z" fill="#599270"/>
<path d="M64.979 88.7018L64.4747 88.6168C65.2191 88.1973 66.5322 88.4908 67.3656 88.1921C67.9862 87.9697 68.4276 87.1794 69.0715 86.9987C69.1216 86.9844 69.1727 86.9734 69.2232 86.9609L69.2373 86.8834L69.3656 86.9877C70.2373 87.0216 71.0976 86.8592 71.9489 87.0855C70.6796 87.4716 69.3931 87.9344 68.098 88.2202C67.075 88.4458 66.014 88.5382 64.979 88.7018Z" fill="url(#paint1_linear_3_172)"/>
<path d="M34.2483 102.574C34.6582 102.438 34.7773 102.848 35.181 102.864C36.173 102.903 37.2103 102.444 38.1956 102.713C38.9742 102.927 40.8666 101.872 41.6871 101.57C41.9486 101.473 42.1231 101.356 42.3872 101.477C41.2088 102.098 38.3592 103.351 37.0981 103.581C36.6493 103.662 36.1044 103.64 35.6719 103.488C35.2003 103.323 34.6155 102.912 34.2483 102.574Z" fill="#658877"/>
<path d="M87.6937 86.066C87.7377 85.5488 87.7926 85.0425 87.8807 84.53C88.1025 84.5912 88.2434 84.5711 88.4656 84.5415C89.2349 84.4389 90.0201 84.4891 90.7844 84.6074C90.5824 85.0674 90.3988 85.5522 90.1564 85.9918C89.3343 86.0645 88.5185 86.0667 87.6937 86.066Z" fill="#122427"/>
<path d="M17.2114 84.5704L17.318 84.6871C17.8017 85.2236 18.0437 86.0191 18.8399 86.0487C19.3221 86.0667 19.7954 86.0055 20.2759 86.0767C19.2151 86.312 15.5949 86.3893 14.5897 86.0665C14.1943 85.7143 14.0285 85.1853 13.8216 84.7085C14.9601 84.538 16.0625 84.4965 17.2114 84.5704Z" fill="#122427"/>
<path d="M69.0162 77.4074C71.0136 77.4354 87.0146 77.1249 87.7076 77.4371L87.7744 77.6108C86.2768 77.7703 68.7809 77.7662 68.7427 77.7419L69.0162 77.4074Z" fill="#09181E"/>
<path d="M79.5757 83.3552L79.5844 83.2233C79.6217 82.5904 79.633 81.933 79.5658 81.3023C79.5087 80.7695 79.3112 80.1559 79.3468 79.6267C79.3646 79.3598 79.4614 79.2587 79.6128 79.051C80.2973 78.685 81.0317 78.8005 81.785 78.8241C81.7327 80.3528 81.602 81.9356 81.7303 83.4615C81.0187 83.4214 80.2849 83.2752 79.5757 83.3552Z" fill="#122427"/>
<path d="M83.7496 36.4659C84.884 36.4413 86.1466 36.3619 87.1021 37.0834C87.5309 37.4071 87.8988 37.8956 87.9413 38.4453C87.9743 38.8696 87.7911 39.262 87.4977 39.5623C86.7295 40.3485 85.7455 40.347 84.7277 40.3764C83.7475 40.3887 82.3521 40.5694 81.556 39.8937C80.7442 39.2042 80.7411 37.7104 80.6919 36.729C81.6902 36.483 82.7273 36.496 83.7496 36.4659Z" fill="#122427"/>
<path d="M47.7289 29.7235L47.8584 29.7199C49.4355 29.6911 51.0162 29.7664 52.5946 29.7439C53.9295 29.7246 55.434 29.5457 56.7526 29.7203C57.0462 29.7592 57.2984 29.8456 57.5083 30.0649C57.8101 30.3806 57.8956 30.8165 57.8874 31.2393C57.8742 31.9201 57.6634 32.4863 57.1754 32.9622C56.0987 33.1225 49.4559 33.2221 48.3984 33.0596C48.2624 33.0385 48.1307 33.002 48.0034 32.9501C47.8759 32.8982 47.7563 32.8323 47.6444 32.7524C47.2883 32.496 47.08 32.1466 47.0251 31.7128C46.9257 30.9268 47.2658 30.3241 47.7289 29.7235Z" fill="#122427"/>
<path d="M76.7359 99.1863C76.8728 99.1749 77.0208 99.1885 77.1584 99.1924C75.3433 100.333 73.5664 101.566 71.6727 102.575C66.0355 105.579 59.7362 106.48 53.4229 106.601L52.8776 106.558C53.6697 106.064 54.9028 105.764 55.7858 105.394C58.0445 104.452 60.3333 103.59 62.6522 102.808C64.9712 102.025 67.3147 101.325 69.6827 100.705C72.0043 100.114 74.3906 99.6824 76.7359 99.1863Z" fill="#4C705F"/>
<path d="M16.3036 88.1419C18.5966 88.2901 20.953 87.9448 23.243 87.8087C26.1128 87.6384 29.0325 87.627 31.9067 87.7005L32.4763 87.8669L32.503 87.9264L32.2524 87.918C32.8353 88.093 33.5087 88.1683 34.0584 88.3957C32.7443 88.8281 31.4062 89.2308 30.1124 89.7193C28.2178 90.4349 22.5989 92.9525 20.9621 92.9532C20.0051 92.9534 17.198 89.0841 16.3915 88.2334L16.3036 88.1419Z" fill="#658877"/>
<path d="M25.642 79.0268C26.7174 79.0238 27.776 78.9987 28.8491 78.9165C28.9246 80.7247 29.1406 82.5751 28.7399 84.3517C31.4203 84.3952 34.0911 84.3764 36.7715 84.3485C39.7817 84.3171 43.2685 84.0683 46.2015 84.8069C46.2022 85.131 46.2171 85.4577 46.1664 85.7787C44.0151 85.9884 41.8358 86.2666 39.6758 86.3293C37.5597 86.3906 35.4559 86.1011 33.3435 86.0526C30.9683 85.9979 28.59 86.0749 26.2145 86.0847C24.231 86.0927 22.2612 86.041 20.2759 86.0767C19.7954 86.0055 19.3221 86.0667 18.8399 86.0487C18.0437 86.0191 17.8017 85.2236 17.318 84.6871L17.2114 84.5704C15.859 82.9643 16.1148 80.9737 16.1326 79.0147C17.112 79.0378 18.0949 79.0792 19.0747 79.0757C18.9938 80.417 18.6409 82.3369 19.2581 83.5683L19.4221 83.6332C20.2021 82.6482 19.785 80.1373 19.6915 78.9567C20.4803 79.0112 21.3002 79.0214 22.0817 79.1326C21.9916 80.297 21.4862 82.9336 22.3365 83.8299C22.3688 83.8639 22.4059 83.8931 22.4406 83.9244L22.6014 83.8784C23.1891 82.6266 22.7523 80.4248 22.7301 79.0333C23.6062 79.0231 24.491 78.987 25.366 79.0365C25.2629 80.0384 24.8781 82.8823 25.4847 83.6432C25.5136 83.6795 25.5498 83.7094 25.5824 83.7425C25.9318 83.4085 25.9383 82.8423 25.9461 82.3871C25.9647 81.2987 25.8484 80.0968 25.642 79.0268Z" fill="#09181E"/>
<path d="M75.929 78.7825C76.8687 78.804 77.8034 78.8786 78.7405 78.95C78.7394 80.2829 78.4147 81.7902 78.8375 83.0733C79.0975 83.3241 79.2259 83.3005 79.5757 83.3552C80.2849 83.2752 81.0187 83.4214 81.7303 83.4615C82.0163 83.4805 82.3338 83.5532 82.5825 83.3846C82.8169 82.0838 82.5949 80.2411 82.3913 78.9195C83.1693 78.9522 83.9491 78.976 84.7264 79.0236C84.6409 80.2143 84.2167 82.556 84.7759 83.5913L84.986 83.649C85.2609 83.4727 85.3436 83.3189 85.4 82.995C85.609 81.7934 85.3375 80.2024 85.2713 78.9643C86.2802 78.9249 87.2887 78.8777 88.297 78.8228C88.3564 80.7699 88.5617 82.6631 87.8807 84.53C87.7926 85.0425 87.7377 85.5488 87.6937 86.066C85.5057 86.1292 83.2963 86.2421 81.1151 86.423C80.0916 86.5078 78.9981 86.7332 77.9811 86.7222C76.0603 87.206 73.832 86.4079 71.9489 87.0855C71.0976 86.8592 70.2373 87.0216 69.3656 86.9877C69.8233 86.928 70.376 86.9148 70.8005 86.7352C69.7178 86.4518 68.3669 86.5305 67.2406 86.4587C65.6006 86.3542 63.9554 86.0455 62.3189 85.992C61.3468 85.9602 60.3685 86.1104 59.3978 86.1535C58.2246 86.2054 55.6387 86.2129 54.7608 85.4148L57.1899 85.1105C63.7288 84.2481 70.2091 84.5183 76.7802 84.4354C75.8151 82.4782 75.9568 80.9118 75.929 78.7825Z" fill="url(#paint2_linear_3_172)"/>
<path d="M54.7608 85.4148L57.1899 85.1105L57.104 85.6295L57.2231 85.7865C59.2088 85.9561 61.196 85.7729 63.1793 85.8936C64.2245 85.9572 65.264 86.108 66.3083 86.1868C70.1963 86.4795 74.0827 86.6895 77.9811 86.7222C76.0603 87.206 73.832 86.4079 71.9489 87.0855C71.0976 86.8592 70.2373 87.0216 69.3656 86.9877C69.8233 86.928 70.376 86.9148 70.8005 86.7352C69.7178 86.4518 68.3669 86.5305 67.2406 86.4587C65.6006 86.3542 63.9554 86.0455 62.3189 85.992C61.3468 85.9602 60.3685 86.1104 59.3978 86.1535C58.2246 86.2054 55.6387 86.2129 54.7608 85.4148Z" fill="#495451"/>
<path d="M79.0883 94.0181C79.173 94.0068 79.2576 93.994 79.3427 93.9871C80.1179 93.9233 82.533 93.811 83.1496 94.3179C82.1005 95.2034 81.1485 96.2477 80.0328 97.046L79.854 97.1724C79.801 97.2105 79.7496 97.2505 79.6964 97.2881C78.5082 98.1247 74.1373 98.401 72.4715 98.6686C71.5537 98.8238 70.643 99.0135 69.7395 99.2376C65.2878 100.33 60.0552 102.164 55.8288 103.927C54.301 104.564 52.9127 105.692 51.3229 106.14C49.4279 106.675 46.9934 106.854 45.0576 106.49C43.4319 106.12 41.9107 105.605 40.3547 105.02C41.9436 104.1 43.6687 103.419 45.356 102.7C51.876 99.9241 58.5267 97.9488 65.4039 96.3042C67.3942 95.8282 69.3599 95.2828 71.3764 94.9213C73.8984 94.4691 76.5356 94.2506 79.0883 94.0181Z" fill="#4C705F"/>
<path d="M50.97 85.4148C52.2391 85.454 53.4917 85.4728 54.7608 85.4148C55.6387 86.2129 58.2246 86.2054 59.3978 86.1535C60.3685 86.1104 61.3468 85.9602 62.3189 85.992C63.9554 86.0455 65.6006 86.3542 67.2406 86.4587C68.3669 86.5305 69.7178 86.4518 70.8005 86.7352C70.376 86.9148 69.8233 86.928 69.3656 86.9877L69.2373 86.8834L69.2232 86.9609C69.1727 86.9734 69.1216 86.9844 69.0715 86.9987C68.4276 87.1794 67.9862 87.9697 67.3656 88.1921C66.5322 88.4908 65.2191 88.1973 64.4747 88.6168L64.979 88.7018C59.0875 89.4547 53.2478 90.9756 47.5364 92.5612C43.9222 93.5646 40.2833 94.5379 36.7075 95.6696C33.4674 96.6949 30.306 97.8902 27.0336 98.8198C25.6395 97.8677 23.6692 95.7971 22.3271 94.5712C27.6525 92.7706 32.8904 90.6634 38.3206 89.1788C41.3577 88.3485 44.5036 87.9662 47.5572 87.2296C48.6423 86.9678 49.7048 86.5864 50.7619 86.2298C49.909 86.1638 49.0577 86.0818 48.208 85.9838C48.5642 85.9529 48.8849 85.9496 49.2007 85.7634C49.4672 85.7461 49.6855 85.8532 49.9472 85.8739C50.1332 85.8886 50.1909 85.9259 50.3385 85.7973L49.6432 85.517C49.9003 85.3631 50.6338 85.4412 50.97 85.4148Z" fill="#658877"/>
<path d="M30.1699 100.452C32.3893 99.465 34.7031 98.4934 37.0011 97.705C38.209 97.2907 39.4701 97.0103 40.6963 96.6499C43.1158 95.939 45.5134 95.2043 47.9465 94.5371C49.46 94.1221 50.9338 93.5756 52.4522 93.1754C58.0656 91.6956 63.9955 90.6009 69.7441 89.8287C73.5369 89.3192 77.3533 89.1565 81.1604 88.8132C83.7631 88.5785 86.3655 88.1735 88.9567 87.8334C88.1041 88.8941 86.1056 91.7689 84.9102 92.1782C83.8134 92.554 81.2145 92.339 79.9108 92.4182C78.4896 92.5045 77.0799 92.7219 75.6619 92.8461C73.6966 93.0183 71.7252 93.1018 69.774 93.4116C68.0173 93.6905 66.2699 94.1578 64.5361 94.5529C60.7175 95.423 56.8746 96.3576 53.1478 97.5687C49.5195 98.7478 45.976 100.187 42.3872 101.477C42.1231 101.356 41.9486 101.473 41.6871 101.57C40.8666 101.872 38.9742 102.927 38.1956 102.713C37.2103 102.444 36.173 102.903 35.181 102.864C34.7773 102.848 34.6582 102.438 34.2483 102.574C32.8511 101.937 31.5078 101.202 30.1699 100.452Z" fill="#4C705F"/>
<path d="M12.7348 56.6809C13.2498 56.6497 13.7737 56.6599 14.2897 56.6512C14.0877 58.7115 13.8464 71.0813 14.405 72.4159C14.7494 73.2385 15.4087 73.9158 16.2407 74.2395C16.7665 74.2817 17.3139 73.637 17.9853 73.6065C19.8727 73.5212 28.8309 73.8042 29.8016 73.1335C29.602 72.7865 28.8819 72.6736 28.4999 72.6083C27.3229 72.4073 26.1156 72.4406 24.9268 72.3852C23.0559 72.298 21.1824 72.1784 19.31 72.1353C18.3931 72.1141 16.8714 72.2997 16.0556 71.9523C15.6962 71.3266 15.6402 70.4671 15.5115 69.7575C18.3473 69.6004 21.5075 69.9619 24.2738 69.2992C22.392 68.7376 20.0784 68.8821 18.1199 68.8486C17.4697 68.8376 16.6507 68.9059 16.0254 68.7173C15.7427 68.632 15.665 68.5518 15.5243 68.301C15.5471 68.1598 15.5282 68.0051 15.5927 67.8772C15.7466 67.5711 22.8044 67.941 23.5546 67.3212C22.0533 66.7009 16.2661 67.3353 15.6294 66.8095C15.5545 66.5125 15.5894 66.262 15.6237 65.9634C15.6754 65.9104 15.7142 65.8412 15.7787 65.8044C16.1365 65.5995 21.968 65.8431 23.1073 65.7116C23.3471 65.6839 23.2464 65.7326 23.4096 65.5283L23.2911 65.3386C21.6744 64.8057 17.3937 64.941 15.5263 64.95C15.507 64.5643 15.5463 64.1744 15.5714 63.7893C16.6836 63.8036 23.2106 63.8432 23.5965 63.4869C23.4615 63.3168 23.3981 63.2299 23.1763 63.1663C22.7082 63.0321 22.0656 63.1096 21.5706 63.1057C20.3304 63.096 16.6183 63.245 15.6667 62.8675C15.5697 62.5354 15.591 62.2364 15.6057 61.8963C16.0897 61.7137 16.7277 61.7812 17.2435 61.7771C18.4703 61.7341 23.0055 61.7979 23.7516 61.5348L23.7571 61.3864C22.8347 60.6926 16.4115 61.4258 15.495 60.7988C15.4838 60.4853 15.4742 60.3544 15.6504 60.0788C15.8835 59.9152 16.0673 59.8239 16.3546 59.7926C18.6463 59.5427 21.5552 60.074 23.942 59.6641C24.0906 59.6383 24.0212 59.6684 24.1353 59.5096C23.5917 58.9778 17.0649 59.2656 15.6159 59.0178C15.574 59.0107 15.5322 59.0025 15.4903 58.9947C15.4705 58.3087 15.3679 57.625 15.2863 56.944C17.7633 56.993 20.2405 57.0049 22.718 56.9796C25.5898 56.9366 28.4672 56.8208 31.3381 56.9184C31.0162 58.1847 30.7565 59.5146 30.6653 60.8181C30.6432 61.1315 30.628 61.4452 30.6198 61.7592C30.6114 62.0731 30.6099 62.3872 30.6152 62.7013C30.6206 63.0155 30.6328 63.3293 30.6519 63.6429C30.671 63.9564 30.6969 64.2695 30.7298 64.582C30.7625 64.8944 30.8021 65.206 30.8485 65.5167C30.8949 65.8275 30.9481 66.1371 31.008 66.4454C31.0679 66.7539 31.1345 67.0609 31.2079 67.3664C31.2812 67.6719 31.3612 67.9756 31.4479 68.2777C31.5346 68.5798 31.6278 68.8799 31.7276 69.1779C31.8273 69.4759 31.9335 69.7715 32.0462 70.0649C32.1589 70.3583 32.2779 70.649 32.4032 70.9372C32.5286 71.2255 32.6603 71.5109 32.7982 71.7933C32.936 72.0758 33.08 72.3552 33.23 72.6314C33.3802 72.9076 33.5363 73.1805 33.6983 73.4501C33.8602 73.7195 34.0281 73.9853 34.2018 74.2475C34.3754 74.5096 34.5547 74.7678 34.7396 75.0222C35.4321 75.9813 36.2426 76.8651 37.02 77.7562C32.9677 77.6544 28.9148 77.6088 24.8612 77.6195C22.4489 77.6337 18.1774 77.8358 15.943 77.4499C14.5137 77.203 13.4929 76.4536 12.6803 75.2858C12.3405 74.797 12.0158 74.23 11.9082 73.6383C11.5516 71.6769 11.7795 66.9391 11.7706 64.6716C11.7628 62.5884 11.4681 58.8117 11.8158 56.8907C12.0434 56.6817 12.439 56.7081 12.7348 56.6809Z" fill="#122427"/>
<path d="M73.794 56.9279C77.365 56.8494 80.9223 56.9589 84.4914 56.9639C87.206 56.9677 89.922 56.8797 92.6371 56.862L92.582 68.3359C92.5757 69.8648 92.8092 71.9702 92.4626 73.4185C92.2039 74.4993 91.4509 75.673 90.6431 76.4322C89.9181 77.1134 88.8833 77.6277 87.8649 77.6173C87.8347 77.6171 87.8046 77.613 87.7744 77.6108L87.7076 77.4371C87.0146 77.1249 71.0136 77.4354 69.0162 77.4074C73.4084 72.2816 74.9898 67.398 74.465 60.6742C74.3656 59.4008 74.1072 58.1639 73.794 56.9279Z" fill="#122427"/>
<path d="M23.9148 40.4063C21.8289 40.247 18.7707 41.12 17.2038 39.3998C16.9134 39.0809 16.7644 38.6954 16.8019 38.2631C16.8084 38.1939 16.8186 38.1253 16.8325 38.0572C16.8464 37.9891 16.8639 37.922 16.885 37.8558C16.906 37.7896 16.9305 37.7247 16.9586 37.6611C16.9867 37.5974 17.018 37.5355 17.0526 37.4752C17.0871 37.4149 17.1249 37.3566 17.1658 37.3002C17.2066 37.2439 17.2504 37.19 17.2971 37.1384C17.3437 37.0867 17.393 37.0377 17.4449 36.9912C17.4967 36.9449 17.5509 36.9015 17.6075 36.8608C18.7138 36.0588 22.4456 36.2704 23.8363 36.5328C24.3059 36.6215 24.8981 36.7598 25.2195 37.1379C25.3254 37.4229 25.4292 37.6753 25.317 37.9797C25.1748 38.365 24.794 38.6337 24.7269 39.0571C27.236 36.1622 29.2276 28.9715 32.1215 27.107C33.1857 26.4212 34.4664 26.2717 35.7007 26.1822C39.4208 25.912 43.1637 25.8579 46.8925 25.8088C52.1421 25.7395 57.3603 25.751 62.6094 25.9104C65.4313 25.9963 68.4608 25.857 71.2293 26.4186C72.0846 26.5919 72.8532 26.9223 73.5128 27.5023C75.0809 28.8817 77.6667 34.4271 78.7878 36.5149C79.3221 37.5098 79.9332 38.4572 80.5026 39.4316C80.9877 40.2615 81.3965 41.2163 82.0576 41.9213C83.0934 43.0264 84.9775 42.7443 86.3462 43.1376C90.335 44.2836 92.4941 48.0117 92.6681 51.9578C92.7073 53.0488 92.6888 54.1387 92.6126 55.2277C90.6258 54.9934 88.5331 55.0955 86.5318 55.0821C82.0929 55.052 77.6404 55.1537 73.205 55.0773C71.5119 51.2729 68.3098 45.5741 64.3673 43.6811C65.9506 43.5314 67.5392 43.5669 69.1277 43.5602C72.4787 43.5459 75.8463 43.6393 79.1942 43.5431C80.8229 43.4961 82.3366 43.0286 83.9402 42.9103C82.9462 42.764 81.9555 42.5496 80.9553 42.457C77.3181 42.1206 73.6423 42.2932 69.9986 42.2928C67.517 42.2926 64.9029 42.1463 62.4302 41.933C61.3162 41.837 60.2926 41.2701 59.2266 40.9753C58.5627 40.7918 57.859 40.7295 57.1767 40.6458C57.1584 40.3835 57.1272 40.3494 57.25 40.1032C57.7952 39.9046 58.4551 40.0097 59.0371 39.9682L59.2765 39.9171C59.7976 38.8334 59.8 36.461 61.1648 35.9987C61.9512 35.7323 67.3649 35.76 68.328 35.8593C68.7102 35.8987 69.0969 35.9863 69.4428 36.1564C70.2378 36.5467 70.6488 37.3307 70.9016 38.14C71.0765 38.7002 71.169 39.2821 71.2408 39.863C72.8843 39.868 74.5208 39.8587 76.163 39.7873C75.6985 38.3765 71.4962 30.0478 70.6188 29.547C69.4389 28.8735 52.9368 28.5038 50.8528 28.5096C48.3923 28.5163 45.9608 28.7489 43.5059 28.8434C40.9059 28.9436 38.2689 28.9025 35.6803 29.1569C35.0966 29.2143 34.3014 29.2978 33.7841 29.5751C32.6936 30.1595 30.3161 35.2709 29.7031 36.7033C29.2706 37.7138 28.9518 38.8066 28.4064 39.7622C30.381 39.8323 32.3561 39.8673 34.3318 39.8671C34.4316 38.6076 34.5273 37.2965 35.5495 36.4034C35.7103 36.263 35.8813 36.1382 36.0606 36.0222C37.4421 35.7879 43.3803 35.6014 44.4118 36.3009C45.3829 36.9594 45.6373 38.9691 45.8844 40.0666C47.0344 40.173 48.1954 40.1577 49.3402 40.2784C48.3413 40.4787 47.3751 40.7048 46.4051 41.0218C45.2215 41.4088 44.0418 41.941 42.7976 42.0897C38.0601 42.6554 32.7511 41.9609 28.0305 42.6736C26.2551 42.9414 24.629 43.7575 22.8853 44.1713C20.1691 44.8163 16.997 45.4188 15.3488 47.915C14.2988 49.5047 14.3242 51.0769 14.3696 52.8898L16.706 52.9026C16.7605 51.1729 16.7893 49.5914 18.1624 48.328C21.2666 45.4718 32.6651 43.9096 36.956 43.5695C38.295 43.4632 39.6109 43.4613 40.9517 43.4901C36.4664 46.0806 33.5931 50.2688 31.8379 55.0613C27.358 54.98 22.8938 55.0429 18.4148 55.1264C16.242 55.1669 14.0757 55.1442 11.9028 55.2353C11.755 51.7263 11.531 48.4379 14.0801 45.6388C15.8123 43.7367 18.2151 42.9935 20.6431 42.423C21.5296 42.2147 22.58 42.0379 23.3022 41.443C23.6316 41.1717 23.7612 40.7918 23.9148 40.4063Z" fill="#122427"/>
<path d="M77.7622 47.4468C79.298 47.4345 82.4067 47.1785 83.7607 47.5842C84.2347 47.7263 84.7004 48.0106 84.9319 48.4625C85.1236 48.8366 85.1403 49.3279 85.0092 49.7236C84.8167 50.3052 84.3998 50.626 83.879 50.9057C82.2993 51.0364 78.2138 51.2984 77.0475 50.2948C76.7244 50.0166 76.4082 49.5585 76.4264 49.1137C76.4562 48.3784 77.2261 47.8444 77.7622 47.4468Z" fill="#FDFCFC"/>
<path d="M49.7308 42.6257C49.7638 42.6206 49.7966 42.6136 49.8298 42.6104C50.9242 42.5011 52.0998 42.5637 53.1994 42.5654C54.4121 42.5673 55.6536 42.5347 56.8574 42.6991C59.8785 43.1114 62.8466 44.7821 65.1338 46.7352C69.5175 50.4791 71.9574 55.3607 72.4114 61.069C72.8875 67.051 71.2797 71.9302 67.3671 76.4625C64.4476 79.8446 60.0428 82.2538 55.5375 82.5866C55.2816 82.6189 55.0255 82.6491 54.7691 82.6774C49.4876 83.2535 44.4118 81.4691 40.3291 78.1673C36.4262 75.011 33.0401 69.1671 32.5464 64.1928C32.2226 60.9312 33.0436 56.2889 34.4629 53.3217C35.0117 52.1746 35.7318 51.1472 36.5408 50.1684C39.8482 46.1665 44.4801 43.1326 49.7308 42.6257Z" fill="#122427"/>
<path d="M50.8012 44.6823C53.8771 44.5398 57.4534 44.6092 59.9848 46.6002C59.4932 46.4655 59.0004 46.3355 58.5063 46.2102C53.9286 45.0599 48.371 45.6386 44.2991 48.0952C39.9469 50.7208 37.0836 55.0371 35.8924 59.9085C35.3201 62.6416 35.4275 65.45 35.5475 68.2203C35.0764 67.0789 34.7559 66.0069 34.6319 64.7759C34.1764 60.2506 35.0957 55.2497 38.0632 51.6777C41.1038 48.0173 45.9958 45.1124 50.8012 44.6823Z" fill="#FDFCFC"/>
<path d="M52.6514 48.1452C56.2357 47.9388 60.176 49.3718 62.9462 51.5991C66.1661 54.1881 67.9166 57.6233 68.3311 61.7018C68.7499 65.8243 67.7284 69.8613 65.0541 73.0721C62.0391 76.6914 58.605 78.4764 53.9288 78.9063C50.0093 78.8925 46.5331 77.7307 43.4968 75.2076C43.3083 75.052 43.1238 74.8919 42.9432 74.7271C42.7625 74.5624 42.586 74.3934 42.4137 74.22C42.2415 74.0467 42.0737 73.8692 41.9102 73.6876C41.7466 73.506 41.5877 73.3205 41.4334 73.1312C41.2791 72.9418 41.1295 72.7487 40.9846 72.552C40.8398 72.3553 40.6999 72.1551 40.5649 71.9514C40.4301 71.7478 40.3003 71.541 40.1756 71.3312C40.0509 71.1212 39.9314 70.9082 39.8171 70.6923C39.7029 70.4765 39.5942 70.2581 39.4907 70.037C39.3873 69.8157 39.2894 69.5921 39.1971 69.3661C39.1046 69.1402 39.0179 68.9121 38.9369 68.6818C38.8557 68.4516 38.7803 68.2195 38.7108 67.9856C38.641 67.7516 38.5771 67.5161 38.5191 67.279C38.4611 67.042 38.409 66.8037 38.3629 66.564C38.3166 66.3244 38.2762 66.0838 38.2418 65.8423C38.2075 65.6007 38.1791 65.3584 38.1567 65.1153C37.8021 61.1004 39.1621 56.5593 41.7935 53.4839C44.6383 50.1589 48.3313 48.476 52.6514 48.1452Z" fill="#FDFCFC"/>
<path d="M52.5512 49.8742C55.7213 49.6154 58.9974 50.6818 61.5083 52.6017C64.3202 54.7517 66.1444 58.2319 66.6027 61.7157C67.0904 65.4228 65.9378 69.0779 63.662 72.0096C61.2535 75.112 57.8542 76.6557 54.0184 77.161C50.7829 77.4559 47.2868 75.9685 44.7983 73.9914C44.6241 73.8536 44.4535 73.7117 44.2865 73.5656C44.1196 73.4193 43.9564 73.269 43.797 73.1147C43.6375 72.9604 43.4821 72.8021 43.3306 72.6398C43.1791 72.4777 43.0318 72.3119 42.8888 72.1425C42.7455 71.973 42.6067 71.8 42.4723 71.6234C42.3379 71.4471 42.208 71.2674 42.0825 71.0845C41.9572 70.9015 41.8366 70.7155 41.7205 70.5266C41.6045 70.3376 41.4933 70.1459 41.387 69.9513C41.2805 69.7567 41.1791 69.5597 41.0827 69.36C40.9862 69.1604 40.8949 68.9586 40.8086 68.7545C40.7223 68.5503 40.6411 68.344 40.5652 68.1357C40.4893 67.9276 40.4187 67.7176 40.3534 67.5057C40.288 67.294 40.228 67.0808 40.1734 66.866C40.1188 66.6512 40.0696 66.4353 40.0259 66.218C39.982 66.0008 39.9438 65.7826 39.9111 65.5634C39.8782 65.3443 39.851 65.1245 39.8293 64.904C39.4618 61.3057 40.9087 57.201 43.2041 54.4361C45.5954 51.5556 48.8821 50.2303 52.5512 49.8742Z" fill="#122427"/>
<path d="M52.9477 52.6856C55.1975 52.5216 58.3394 53.8878 60.018 55.3449C60.1516 55.4599 60.2822 55.578 60.4098 55.6993C60.5374 55.8208 60.6619 55.9452 60.7835 56.0727C60.9048 56.2002 61.023 56.3307 61.1381 56.4641C61.2529 56.5975 61.3645 56.7337 61.4727 56.8726C61.5809 57.0115 61.6856 57.1529 61.7867 57.297C61.8878 57.4411 61.9853 57.5876 62.079 57.7364C62.1729 57.8853 62.2631 58.0364 62.3494 58.1899C62.4357 58.3432 62.5181 58.4985 62.5966 58.6559C62.6753 58.8134 62.75 58.9727 62.8206 59.1338C62.8912 59.2949 62.9578 59.4577 63.0205 59.6221C63.083 59.7865 63.1414 59.9524 63.1958 60.1197C63.2501 60.287 63.3001 60.4555 63.346 60.6253C63.392 60.7951 63.4337 60.9659 63.471 61.1378C63.5085 61.3096 63.5416 61.4822 63.5704 61.6557C63.5992 61.8293 63.6237 62.0033 63.644 62.178C63.6641 62.3527 63.6798 62.5278 63.6913 62.7033C63.8738 65.6733 63.0777 68.3179 61.091 70.5556C59.2086 72.6755 56.7515 73.8702 53.9108 74.0506C51.4991 74.3079 48.8163 73.3583 46.9161 71.8928C44.828 70.2825 43.2336 67.7329 42.9137 65.1032C42.5283 61.9353 43.2744 58.8523 45.2876 56.3423C47.251 53.8946 49.9333 53.0342 52.9477 52.6856Z" fill="#FDFCFC"/>
<path d="M52.4338 54.6063C54.4082 54.4445 56.5881 55.1018 58.232 56.1835C60.1743 57.4619 61.4119 59.3121 61.8601 61.585C62.3184 63.9101 61.8961 66.456 60.5599 68.433C59.0085 70.7278 56.893 71.7998 54.2339 72.33C52.3494 72.6474 50.368 72.0789 48.7762 71.0685C46.7931 69.81 45.3732 67.9289 44.8708 65.6285C44.3 63.0148 44.7392 60.5137 46.2035 58.2678C47.5665 56.177 50.0772 55.1158 52.4338 54.6063Z" fill="#122427"/>
<path d="M50.1699 56.9777C50.8895 56.9444 51.5394 57.0171 52.1618 57.4087C52.8183 57.8217 53.2443 58.4837 53.4155 59.2322C53.6452 60.2357 53.4216 61.3494 52.8378 62.1964C52.248 63.052 51.4711 63.4743 50.4654 63.6602C49.832 63.681 49.2256 63.5836 48.6525 63.3028C47.9602 62.9633 47.4407 62.3846 47.2 61.6519C46.9022 60.7451 47.0635 59.7368 47.5301 58.9155C48.1206 57.8764 49.0488 57.3135 50.1699 56.9777Z" fill="#FDFCFC"/>
<g filter="url(#filter0_d_3_172)">
<path d="M167.888 84H151.04L150.032 72.552H136.712L131.6 84H124.616L145.856 38.28H162.92L167.888 84ZM139.088 67.296H149.528L147.872 47.712L139.088 67.296ZM172.922 53.04H188.186L191.138 74.208L201.65 53.04H209.282L192.938 84H177.89L172.922 53.04ZM210.695 53.04C212.471 52.656 214.031 52.224 215.375 51.744C216.719 51.264 217.943 50.664 219.047 49.944C220.199 49.224 221.279 48.336 222.287 47.28C223.343 46.224 224.471 44.928 225.671 43.392H233.087L230.999 53.04H236.615L235.679 57.864H229.991L227.039 71.904C226.799 73.008 226.607 73.992 226.463 74.856C226.319 75.72 226.247 76.392 226.247 76.872C226.247 77.832 226.583 78.432 227.255 78.672C227.975 78.912 229.295 79.032 231.215 79.032L230.135 84C229.799 84.096 229.271 84.168 228.551 84.216C227.879 84.264 227.111 84.312 226.247 84.36C225.431 84.456 224.567 84.504 223.655 84.504C222.791 84.552 222.023 84.576 221.351 84.576C220.151 84.576 218.975 84.48 217.823 84.288C216.671 84.144 215.639 83.832 214.727 83.352C213.815 82.824 213.071 82.08 212.495 81.12C211.967 80.16 211.703 78.864 211.703 77.232C211.703 76.656 211.727 75.936 211.775 75.072C211.871 74.208 212.039 73.248 212.279 72.192L215.303 57.864H209.687L210.695 53.04ZM257.625 52.248C263.337 52.248 267.489 53.256 270.081 55.272C272.817 57.384 274.185 60.888 274.185 65.784C274.185 68.808 273.681 71.544 272.673 73.992C271.665 76.392 270.249 78.384 268.425 79.968C264.777 83.04 259.497 84.576 252.585 84.576C246.681 84.576 242.457 83.448 239.913 81.192C237.177 78.84 235.809 75.312 235.809 70.608C235.809 67.488 236.433 64.656 237.681 62.112C238.977 59.568 240.825 57.456 243.225 55.776C246.729 53.424 251.529 52.248 257.625 52.248ZM252.729 79.68C253.929 79.68 254.961 79.008 255.825 77.664C256.737 76.32 257.457 74.688 257.985 72.768C258.513 70.8 258.897 68.784 259.137 66.72C259.425 64.608 259.569 62.784 259.569 61.248C259.569 59.904 259.425 58.896 259.137 58.224C258.897 57.504 258.345 57.144 257.481 57.144C256.185 57.144 255.057 57.84 254.097 59.232C253.185 60.624 252.441 62.28 251.865 64.2C251.289 66.12 250.857 68.088 250.569 70.104C250.329 72.12 250.209 73.752 250.209 75C250.209 78.12 251.049 79.68 252.729 79.68ZM285.658 38.28H315.97L314.818 43.752H300.058L297.25 56.928H309.562L308.41 62.472H296.098L291.49 84H275.938L285.658 38.28ZM332.719 52.248C338.431 52.248 342.583 53.256 345.175 55.272C347.911 57.384 349.279 60.888 349.279 65.784C349.279 68.808 348.775 71.544 347.767 73.992C346.759 76.392 345.343 78.384 343.519 79.968C339.871 83.04 334.591 84.576 327.679 84.576C321.775 84.576 317.551 83.448 315.007 81.192C312.271 78.84 310.903 75.312 310.903 70.608C310.903 67.488 311.527 64.656 312.775 62.112C314.071 59.568 315.919 57.456 318.319 55.776C321.823 53.424 326.623 52.248 332.719 52.248ZM327.823 79.68C329.023 79.68 330.055 79.008 330.919 77.664C331.831 76.32 332.551 74.688 333.079 72.768C333.607 70.8 333.991 68.784 334.231 66.72C334.519 64.608 334.663 62.784 334.663 61.248C334.663 59.904 334.519 58.896 334.231 58.224C333.991 57.504 333.439 57.144 332.575 57.144C331.279 57.144 330.151 57.84 329.191 59.232C328.279 60.624 327.535 62.28 326.959 64.2C326.383 66.12 325.951 68.088 325.663 70.104C325.423 72.12 325.303 73.752 325.303 75C325.303 78.12 326.143 79.68 327.823 79.68ZM353.429 53.04C355.205 52.656 356.765 52.224 358.109 51.744C359.453 51.264 360.677 50.664 361.781 49.944C362.933 49.224 364.013 48.336 365.021 47.28C366.077 46.224 367.205 44.928 368.405 43.392H375.821L373.733 53.04H379.349L378.413 57.864H372.725L369.773 71.904C369.533 73.008 369.341 73.992 369.197 74.856C369.053 75.72 368.981 76.392 368.981 76.872C368.981 77.832 369.317 78.432 369.989 78.672C370.709 78.912 372.029 79.032 373.949 79.032L372.869 84C372.533 84.096 372.005 84.168 371.285 84.216C370.613 84.264 369.845 84.312 368.981 84.36C368.165 84.456 367.301 84.504 366.389 84.504C365.525 84.552 364.757 84.576 364.085 84.576C362.885 84.576 361.709 84.48 360.557 84.288C359.405 84.144 358.373 83.832 357.461 83.352C356.549 82.824 355.805 82.08 355.229 81.12C354.701 80.16 354.437 78.864 354.437 77.232C354.437 76.656 354.461 75.936 354.509 75.072C354.605 74.208 354.773 73.248 355.013 72.192L358.037 57.864H352.421L353.429 53.04ZM400.36 52.248C406.072 52.248 410.224 53.256 412.816 55.272C415.552 57.384 416.92 60.888 416.92 65.784C416.92 68.808 416.416 71.544 415.408 73.992C414.4 76.392 412.984 78.384 411.16 79.968C407.512 83.04 402.232 84.576 395.32 84.576C389.416 84.576 385.192 83.448 382.648 81.192C379.912 78.84 378.544 75.312 378.544 70.608C378.544 67.488 379.168 64.656 380.416 62.112C381.712 59.568 383.56 57.456 385.96 55.776C389.464 53.424 394.264 52.248 400.36 52.248ZM395.464 79.68C396.664 79.68 397.696 79.008 398.56 77.664C399.472 76.32 400.192 74.688 400.72 72.768C401.248 70.8 401.632 68.784 401.872 66.72C402.16 64.608 402.304 62.784 402.304 61.248C402.304 59.904 402.16 58.896 401.872 58.224C401.632 57.504 401.08 57.144 400.216 57.144C398.92 57.144 397.792 57.84 396.832 59.232C395.92 60.624 395.176 62.28 394.6 64.2C394.024 66.12 393.592 68.088 393.304 70.104C393.064 72.12 392.944 73.752 392.944 75C392.944 78.12 393.784 79.68 395.464 79.68Z" fill="white"/>
</g>
<defs>
<filter id="filter0_d_3_172" x="124.616" y="38.28" width="292.304" height="47.296" filterUnits="userSpaceOnUse" color-interpolation-filters="sRGB">
<feFlood flood-opacity="0" result="BackgroundImageFix"/>
<feColorMatrix in="SourceAlpha" type="matrix" values="0 0 0 0 0 0 0 0 0 0 0 0 0 0 0 0 0 0 127 0" result="hardAlpha"/>
<feOffset dy="1"/>
<feComposite in2="hardAlpha" operator="out"/>
<feColorMatrix type="matrix" values="0 0 0 0 1 0 0 0 0 1 0 0 0 0 1 0 0 0 1 0"/>
<feBlend mode="normal" in2="BackgroundImageFix" result="effect1_dropShadow_3_172"/>
<feBlend mode="normal" in="SourceGraphic" in2="effect1_dropShadow_3_172" result="shape"/>
</filter>
<linearGradient id="paint0_linear_3_172" x1="57.1189" y1="68.9141" x2="18.4108" y2="25.6747" gradientUnits="userSpaceOnUse">
<stop stop-color="#576C68"/>
<stop offset="1" stop-color="#6D8F80"/>
</linearGradient>
<linearGradient id="paint1_linear_3_172" x1="61.5235" y1="18.5519" x2="82.088" y2="23.6016" gradientUnits="userSpaceOnUse">
<stop stop-color="#577569"/>
<stop offset="1" stop-color="#738177"/>
</linearGradient>
<linearGradient id="paint2_linear_3_172" x1="91.2722" y1="136.686" x2="2.04026" y2="124.396" gradientUnits="userSpaceOnUse">
<stop stop-color="#000D13"/>
<stop offset="1" stop-color="#253E42"/>
</linearGradient>
</defs>
</svg>
